<?xml version="1.0" encoding="utf-8"?><svg viewBox="0 0 48 48" xmlns="http://www.w3.org/2000/svg" xmlns:xlink="http://www.w3.org/1999/xlink"><style>:root>svg{display:none}:root>svg:target{display:block}</style><svg viewBox="0 0 48 48" id="ic_attach_file_48px"><path d="M33 12v23c0 4.42-3.58 8-8 8s-8-3.58-8-8V10c0-2.76 2.24-5 5-5s5 2.24 5 5v21c0 1.1-.89 2-2 2-1.11 0-2-.9-2-2V12h-3v19c0 2.76 2.24 5 5 5s5-2.24 5-5V10c0-4.42-3.58-8-8-8s-8 3.58-8 8v25c0 6.08 4.93 11 11 11s11-4.92 11-11V12h-3z"/></svg><svg viewBox="0 0 48 48" id="ic_attach_money_48px"><path d="M23.6 21.8c-4.54-1.18-6-2.39-6-4.29 0-2.18 2.01-3.71 5.4-3.71 3.56 0 4.88 1.7 5 4.2h4.42c-.13-3.45-2.24-6.59-6.42-7.62V6h-6v4.32c-3.88.85-7 3.35-7 7.22 0 4.62 3.83 6.92 9.4 8.26 5.01 1.2 6 2.95 6 4.83 0 1.37-.97 3.57-5.4 3.57-4.12 0-5.75-1.85-5.96-4.2h-4.41c.25 4.38 3.52 6.83 7.37 7.66V42h6v-4.3c3.89-.75 7-3 7-7.11 0-5.66-4.86-7.6-9.4-8.79z"/></svg><svg viewBox="0 0 48 48" id="ic_border_all_48px"><path d="M6 6v36h36V6H6zm16 32H10V26h12v12zm0-16H10V10h12v12zm16 16H26V26h12v12zm0-16H26V10h12v12z"/></svg><svg viewBox="0 0 48 48" id="ic_border_bottom_48px"><path d="M18 22h-4v4h4v-4zm8 8h-4v4h4v-4zM18 6h-4v4h4V6zm8 16h-4v4h4v-4zM10 6H6v4h4V6zm16 8h-4v4h4v-4zm8 8h-4v4h4v-4zM26 6h-4v4h4V6zm8 0h-4v4h4V6zm4 20h4v-4h-4v4zm0 8h4v-4h-4v4zM10 14H6v4h4v-4zm28-8v4h4V6h-4zm0 12h4v-4h-4v4zm-28 4H6v4h4v-4zM6 42h36v-4H6v4zm4-12H6v4h4v-4z"/></svg><svg viewBox="0 0 48 48" id="ic_border_clear_48px"><path d="M14 10h4V6h-4v4zm0 16h4v-4h-4v4zm0 16h4v-4h-4v4zm8-8h4v-4h-4v4zm0 8h4v-4h-4v4zM6 42h4v-4H6v4zm0-8h4v-4H6v4zm0-8h4v-4H6v4zm0-8h4v-4H6v4zm0-8h4V6H6v4zm16 16h4v-4h-4v4zm16 8h4v-4h-4v4zm0-8h4v-4h-4v4zm0 16h4v-4h-4v4zm0-24h4v-4h-4v4zm-16 0h4v-4h-4v4zM38 6v4h4V6h-4zm-16 4h4V6h-4v4zm8 32h4v-4h-4v4zm0-16h4v-4h-4v4zm0-16h4V6h-4v4z"/></svg><svg viewBox="0 0 48 48" id="ic_border_color_48px"><path d="M35.5 14L28 6.5l-20 20V34h7.5l20-20zm5.91-5.91c.78-.78.78-2.05 0-2.83L36.74.59c-.78-.78-2.05-.78-2.83 0L30 4.5l7.5 7.5 3.91-3.91z"/><path fill-opacity=".36" d="M0 40h48v8H0z"/></svg><svg viewBox="0 0 48 48" id="ic_border_horizontal_48px"><path d="M6 42h4v-4H6v4zm4-28H6v4h4v-4zM6 34h4v-4H6v4zm8 8h4v-4h-4v4zM10 6H6v4h4V6zm8 0h-4v4h4V6zm16 0h-4v4h4V6zm-8 8h-4v4h4v-4zm0-8h-4v4h4V6zm12 28h4v-4h-4v4zm-16 8h4v-4h-4v4zM6 26h36v-4H6v4zM38 6v4h4V6h-4zm0 12h4v-4h-4v4zM22 34h4v-4h-4v4zm8 8h4v-4h-4v4zm8 0h4v-4h-4v4z"/></svg><svg viewBox="0 0 48 48" id="ic_border_inner_48px"><path d="M6 42h4v-4H6v4zm8 0h4v-4h-4v4zm-4-28H6v4h4v-4zM6 34h4v-4H6v4zM18 6h-4v4h4V6zm-8 0H6v4h4V6zm24 0h-4v4h4V6zm4 12h4v-4h-4v4zm0-12v4h4V6h-4zm-8 36h4v-4h-4v4zM26 6h-4v16H6v4h16v16h4V26h16v-4H26V6zm12 36h4v-4h-4v4zm0-8h4v-4h-4v4z"/></svg><svg viewBox="0 0 48 48" id="ic_border_left_48px"><path d="M22 42h4v-4h-4v4zm0-8h4v-4h-4v4zm0-24h4V6h-4v4zm0 8h4v-4h-4v4zm0 8h4v-4h-4v4zm-8 16h4v-4h-4v4zm0-32h4V6h-4v4zm0 16h4v-4h-4v4zM6 42h4V6H6v36zm32-24h4v-4h-4v4zm-8 24h4v-4h-4v4zm8-8h4v-4h-4v4zm0-28v4h4V6h-4zm0 20h4v-4h-4v4zm0 16h4v-4h-4v4zm-8-16h4v-4h-4v4zm0-16h4V6h-4v4z"/></svg><svg viewBox="0 0 48 48" id="ic_border_outer_48px"><path d="M26 14h-4v4h4v-4zm0 8h-4v4h4v-4zm8 0h-4v4h4v-4zM6 6v36h36V6H6zm32 32H10V10h28v28zm-12-8h-4v4h4v-4zm-8-8h-4v4h4v-4z"/></svg><svg viewBox="0 0 48 48" id="ic_border_right_48px"><path d="M14 42h4v-4h-4v4zM6 10h4V6H6v4zm8 0h4V6h-4v4zm0 16h4v-4h-4v4zM6 42h4v-4H6v4zm16 0h4v-4h-4v4zM6 26h4v-4H6v4zm0 8h4v-4H6v4zm0-16h4v-4H6v4zm16 16h4v-4h-4v4zm8-8h4v-4h-4v4zm8-20v36h4V6h-4zm-8 36h4v-4h-4v4zm0-32h4V6h-4v4zm-8 16h4v-4h-4v4zm0-16h4V6h-4v4zm0 8h4v-4h-4v4z"/></svg><svg viewBox="0 0 48 48" id="ic_border_style_48px"><path d="M30 42h4v-4h-4v4zm8 0h4v-4h-4v4zm-24 0h4v-4h-4v4zm8 0h4v-4h-4v4zm16-8h4v-4h-4v4zm0-8h4v-4h-4v4zM6 6v36h4V10h32V6H6zm32 12h4v-4h-4v4z"/></svg><svg viewBox="0 0 48 48" id="ic_border_top_48px"><path d="M14 42h4v-4h-4v4zm0-16h4v-4h-4v4zm8 0h4v-4h-4v4zm0 16h4v-4h-4v4zM6 34h4v-4H6v4zm0 8h4v-4H6v4zm0-16h4v-4H6v4zm0-8h4v-4H6v4zm16 16h4v-4h-4v4zm16-16h4v-4h-4v4zm0 8h4v-4h-4v4zM6 6v4h36V6H6zm32 28h4v-4h-4v4zm-8 8h4v-4h-4v4zm-8-24h4v-4h-4v4zm16 24h4v-4h-4v4zm-8-16h4v-4h-4v4z"/></svg><svg viewBox="0 0 48 48" id="ic_border_vertical_48px"><path d="M6 18h4v-4H6v4zm0-8h4V6H6v4zm8 32h4v-4h-4v4zm0-16h4v-4h-4v4zm-8 0h4v-4H6v4zm0 16h4v-4H6v4zm0-8h4v-4H6v4zm8-24h4V6h-4v4zm24 24h4v-4h-4v4zm-16 8h4V6h-4v36zm16 0h4v-4h-4v4zm0-16h4v-4h-4v4zm0-20v4h4V6h-4zm0 12h4v-4h-4v4zm-8-8h4V6h-4v4zm0 32h4v-4h-4v4zm0-16h4v-4h-4v4z"/></svg><svg viewBox="0 0 48 48" id="ic_format_align_center_48px"><path d="M14 30v4h20v-4H14zM6 42h36v-4H6v4zm0-16h36v-4H6v4zm8-12v4h20v-4H14zM6 6v4h36V6H6z"/></svg><svg viewBox="0 0 48 48" id="ic_format_align_justify_48px"><path d="M6 42h36v-4H6v4zm0-8h36v-4H6v4zm0-8h36v-4H6v4zm0-8h36v-4H6v4zM6 6v4h36V6H6z"/></svg><svg viewBox="0 0 48 48" id="ic_format_align_left_48px"><path d="M30 30H6v4h24v-4zm0-16H6v4h24v-4zM6 26h36v-4H6v4zm0 16h36v-4H6v4zM6 6v4h36V6H6z"/></svg><svg viewBox="0 0 48 48" id="ic_format_align_right_48px"><path d="M6 42h36v-4H6v4zm12-8h24v-4H18v4zM6 26h36v-4H6v4zm12-8h24v-4H18v4zM6 6v4h36V6H6z"/></svg><svg viewBox="0 0 48 48" id="ic_format_bold_48px"><path d="M31.2 21.58c1.93-1.35 3.3-3.53 3.3-5.58 0-4.51-3.49-8-8-8H14v28h14.08c4.19 0 7.42-3.4 7.42-7.58 0-3.04-1.73-5.63-4.3-6.84zM20 13h6c1.66 0 3 1.34 3 3s-1.34 3-3 3h-6v-6zm7 18h-7v-6h7c1.66 0 3 1.34 3 3s-1.34 3-3 3z"/></svg><svg viewBox="0 0 48 48" id="ic_format_clear_48px"><path d="M6.54 10L4 12.55l13.94 13.94L13 38h6l3.14-7.32L33.46 42 36 39.45 7.09 10.55 6.54 10zM12 10v.36L17.64 16h4.79l-1.44 3.35 4.2 4.2L28.43 16H40v-6H12z"/></svg><svg viewBox="0 0 48 48" id="ic_format_color_fill_48px"><path d="M33.12 17.88L15.24 0l-2.83 2.83 4.76 4.76L6.88 17.88c-1.17 1.17-1.17 3.07 0 4.24l11 11c.58.59 1.35.88 2.12.88s1.54-.29 2.12-.88l11-11c1.17-1.17 1.17-3.07 0-4.24zM10.41 20L20 10.42 29.59 20H10.41zM38 23s-4 4.33-4 7c0 2.21 1.79 4 4 4s4-1.79 4-4c0-2.67-4-7-4-7z"/><path fill-opacity=".36" d="M0 40h48v8H0z"/></svg><svg viewBox="0 0 48 48" id="ic_format_color_reset_48px"><path d="M36 28c0-8-12-21.6-12-21.6s-2.66 3.02-5.47 7.04L35.7 30.61c.19-.84.3-1.71.3-2.61zm-1.76 6.24L25 25 10.54 10.54 8 13.09l6.64 6.64C13.11 22.65 12 25.58 12 28c0 6.63 5.37 12 12 12 3.04 0 5.8-1.14 7.91-3l5.27 5.27 2.54-2.55-5.48-5.48z"/></svg><svg viewBox="0 0 48 48" id="ic_format_color_text_48px"><path fill-opacity=".36" d="M0 40h48v8H0z"/><path d="M22 6L11 34h4.5l2.25-6h12.5l2.25 6H37L26 6h-4zm-2.75 18L24 11.33 28.75 24h-9.5z"/></svg><svg viewBox="0 0 48 48" id="ic_format_indent_decrease_48px"><path d="M22 34h20v-4H22v4zM6 24l8 8V16l-8 8zm0 18h36v-4H6v4zM6 6v4h36V6H6zm16 12h20v-4H22v4zm0 8h20v-4H22v4z"/></svg><svg viewBox="0 0 48 48" id="ic_format_indent_increase_48px"><path d="M6 42h36v-4H6v4zm0-26v16l8-8-8-8zm16 18h20v-4H22v4zM6 6v4h36V6H6zm16 12h20v-4H22v4zm0 8h20v-4H22v4z"/></svg><svg viewBox="0 0 48 48" id="ic_format_italic_48px"><path d="M20 8v6h4.43l-6.86 16H12v6h16v-6h-4.43l6.86-16H36V8z"/></svg><svg viewBox="0 0 48 48" id="ic_format_line_spacing_48px"><path d="M12 14h5l-7-7-7 7h5v20H3l7 7 7-7h-5V14zm8-4v4h24v-4H20zm0 28h24v-4H20v4zm0-12h24v-4H20v4z"/></svg><svg viewBox="0 0 48 48" id="ic_format_list_bulleted_48px"><path d="M8 21c-1.66 0-3 1.34-3 3s1.34 3 3 3 3-1.34 3-3-1.34-3-3-3zM8 9c-1.66 0-3 1.34-3 3s1.34 3 3 3 3-1.34 3-3-1.34-3-3-3zm0 24.33c-1.47 0-2.67 1.19-2.67 2.67s1.2 2.67 2.67 2.67 2.67-1.19 2.67-2.67-1.2-2.67-2.67-2.67zM14 38h28v-4H14v4zm0-12h28v-4H14v4zm0-16v4h28v-4H14z"/></svg><svg viewBox="0 0 48 48" id="ic_format_list_numbered_48px"><path d="M4 34h4v1H6v2h2v1H4v2h6v-8H4v2zm2-18h2V8H4v2h2v6zm-2 6h3.6L4 26.2V28h6v-2H6.4l3.6-4.2V20H4v2zm10-12v4h28v-4H14zm0 28h28v-4H14v4zm0-12h28v-4H14v4z"/></svg><svg viewBox="0 0 48 48" id="ic_format_paint_48px"><path d="M36 8V6c0-1.1-.9-2-2-2H10c-1.1 0-2 .9-2 2v8c0 1.1.9 2 2 2h24c1.1 0 2-.9 2-2v-2h2v8H18v22c0 1.1.9 2 2 2h4c1.1 0 2-.9 2-2V24h16V8h-6z"/></svg><svg viewBox="0 0 48 48" id="ic_format_quote_48px"><path d="M12 34h6l4-8V14H10v12h6zm16 0h6l4-8V14H26v12h6z"/></svg><svg viewBox="0 0 48 48" id="ic_format_size_48px"><path d="M18 8v6h10v24h6V14h10V8H18zM6 24h6v14h6V24h6v-6H6v6z"/></svg><svg viewBox="0 0 48 48" id="ic_format_strikethrough_48px"><path d="M20 38h8v-6h-8v6zM10 8v6h10v6h8v-6h10V8H10zM6 28h36v-4H6v4z"/></svg><svg viewBox="0 0 48 48" id="ic_format_textdirection_l_to_r_48px"><path d="M18 20v10h4V8h4v22h4V8h4V4H18c-4.42 0-8 3.58-8 8s3.58 8 8 8zm24 16l-8-8v6H10v4h24v6l8-8z"/></svg><svg viewBox="0 0 48 48" id="ic_format_textdirection_r_to_l_48px"><path d="M20 20v10h4V8h4v22h4V8h4V4H20c-4.42 0-8 3.58-8 8s3.58 8 8 8zm-4 14v-6l-8 8 8 8v-6h24v-4H16z"/></svg><svg viewBox="0 0 48 48" id="ic_format_underlined_48px"><path d="M24 34c6.63 0 12-5.37 12-12V6h-5v16c0 3.87-3.13 7-7 7s-7-3.13-7-7V6h-5v16c0 6.63 5.37 12 12 12zm-14 4v4h28v-4H10z"/></svg><svg viewBox="0 0 48 48" id="ic_functions_48px"><path d="M36 8H12v4l13 12-13 12v4h24v-6H22l10-10-10-10h14z"/></svg><svg viewBox="0 0 48 48" id="ic_insert_chart_48px"><path d="M38 6H10c-2.21 0-4 1.79-4 4v28c0 2.21 1.79 4 4 4h28c2.21 0 4-1.79 4-4V10c0-2.21-1.79-4-4-4zM18 34h-4V20h4v14zm8 0h-4V14h4v20zm8 0h-4v-8h4v8z"/></svg><svg viewBox="0 0 48 48" id="ic_insert_comment_48px"><path d="M40 4H8C5.79 4 4 5.79 4 8v24c0 2.21 1.79 4 4 4h28l8 8V8c0-2.21-1.79-4-4-4zm-4 24H12v-4h24v4zm0-6H12v-4h24v4zm0-6H12v-4h24v4z"/></svg><svg viewBox="0 0 48 48" id="ic_insert_drive_file_48px"><path d="M12 4C9.79 4 8.02 5.79 8.02 8L8 40c0 2.21 1.77 4 3.98 4H36c2.21 0 4-1.79 4-4V16L28 4H12zm14 14V7l11 11H26z"/></svg><svg viewBox="0 0 48 48" id="ic_insert_emoticon_48px"><path d="M23.99 4C12.94 4 4 12.95 4 24s8.94 20 19.99 20C35.04 44 44 35.05 44 24S35.04 4 23.99 4zM24 40c-8.84 0-16-7.16-16-16S15.16 8 24 8s16 7.16 16 16-7.16 16-16 16zm7-18c1.66 0 3-1.34 3-3s-1.34-3-3-3-3 1.34-3 3 1.34 3 3 3zm-14 0c1.66 0 3-1.34 3-3s-1.34-3-3-3-3 1.34-3 3 1.34 3 3 3zm7 13c4.66 0 8.61-2.91 10.21-7H13.79c1.6 4.09 5.55 7 10.21 7z"/></svg><svg viewBox="0 0 48 48" id="ic_insert_invitation_48px"><path d="M34 24H24v10h10V24zM32 2v4H16V2h-4v4h-2c-2.21 0-3.98 1.79-3.98 4L6 38c0 2.21 1.79 4 4 4h28c2.21 0 4-1.79 4-4V10c0-2.21-1.79-4-4-4h-2V2h-4zm6 36H10V16h28v22z"/></svg><svg viewBox="0 0 48 48" id="ic_insert_link_48px"><path d="M7.8 24c0-3.42 2.78-6.2 6.2-6.2h8V14h-8C8.48 14 4 18.48 4 24s4.48 10 10 10h8v-3.8h-8c-3.42 0-6.2-2.78-6.2-6.2zm8.2 2h16v-4H16v4zm18-12h-8v3.8h8c3.42 0 6.2 2.78 6.2 6.2s-2.78 6.2-6.2 6.2h-8V34h8c5.52 0 10-4.48 10-10s-4.48-10-10-10z"/></svg><svg viewBox="0 0 48 48" id="ic_insert_photo_48px"><path d="M42 38V10c0-2.21-1.79-4-4-4H10c-2.21 0-4 1.79-4 4v28c0 2.21 1.79 4 4 4h28c2.21 0 4-1.79 4-4zM17 27l5 6.01L29 24l9 12H10l7-9z"/></svg><svg viewBox="0 0 48 48" id="ic_merge_type_48px"><path d="M34 40.83L36.83 38 30 31.17 27.17 34 34 40.83zM15 16h7v11.17L11.17 38 14 40.83l12-12V16h7l-9-9-9 9z"/></svg><svg viewBox="0 0 48 48" id="ic_mode_comment_48px"><path d="M43.98 8c0-2.21-1.77-4-3.98-4H8C5.79 4 4 5.79 4 8v24c0 2.21 1.79 4 4 4h28l8 8-.02-36z"/></svg><svg viewBox="0 0 48 48" id="ic_mode_edit_48px"><path d="M6 34.5V42h7.5l22.13-22.13-7.5-7.5L6 34.5zm35.41-20.41c.78-.78.78-2.05 0-2.83l-4.67-4.67c-.78-.78-2.05-.78-2.83 0l-3.66 3.66 7.5 7.5 3.66-3.66z"/></svg><svg viewBox="0 0 48 48" id="ic_publish_48px"><path d="M10 8v4h28V8H10zm0 20h8v12h12V28h8L24 14 10 28z"/></svg><svg viewBox="0 0 48 48" id="ic_space_bar_48px"><path d="M36 18v8H12v-8H8v12h32V18z"/></svg><svg viewBox="0 0 48 48" id="ic_strikethrough_s_48px"><path d="M11.7 20h12.6c-1.7-.6-3-1.2-4-1.9-1.3-.9-2-1.9-2-3.2 0-.6.1-1.2.4-1.8.3-.6.6-1 1.1-1.4.5-.4 1.1-.7 1.9-1 .8-.2 1.7-.3 2.7-.3 1.1 0 2 .1 2.8.4.8.3 1.5.7 2 1.2s.9 1.1 1.2 1.8c.3.7.4 1.5.4 2.3h8c0-1.7-.3-3.4-1-4.8-.7-1.5-1.6-2.7-2.9-3.8-1.2-1.1-2.8-1.9-4.5-2.5-1.7-.7-3.6-1-5.8-1-2.1 0-4 .3-5.8.8-1.8.5-3.3 1.3-4.5 2.2-1.3.9-2.3 2.1-3 3.4-.7 1.3-1.1 2.8-1.1 4.5 0 1.7.3 3.2 1 4.4.2.3.4.5.5.7zM46 24H2v4h23.8c.5.2.9.4 1.3.5 1 .4 1.8.9 2.3 1.4.6.5.9 1 1.1 1.5.2.5.3 1.2.3 1.8 0 .6-.1 1.2-.4 1.8-.2.5-.6 1-1.1 1.4-.5.4-1.1.7-1.9.9-.8.2-1.7.3-2.7.3-1.2 0-2.2-.1-3.2-.3-.9-.2-1.8-.6-2.4-1.1-.7-.5-1.2-1.2-1.6-2-.4-.8-.7-2-.7-3.2H9.1c0 1.5.2 3 .6 4.2.4 1.2 1 2.3 1.7 3.2.7.9 1.6 1.8 2.6 2.5s2.1 1.3 3.2 1.7c1.2.5 2.4.8 3.7 1 1.3.2 2.6.3 3.9.3 2.1 0 4.1-.2 5.8-.7 1.7-.5 3.2-1.2 4.5-2.1 1.2-.9 2.2-2 2.8-3.4.7-1.3 1-2.9 1-4.6 0-1.6-.3-3-.8-4.3-.1-.3-.3-.6-.4-.9H46V24z"/></svg><svg viewBox="0 0 48 48" id="ic_vertical_align_bottom_48px"><path d="M32 26h-6V6h-4v20h-6l8 8 8-8zM8 38v4h32v-4H8z"/></svg><svg viewBox="0 0 48 48" id="ic_vertical_align_center_48px"><path d="M16 38h6v8h4v-8h6l-8-8-8 8zm16-28h-6V2h-4v8h-6l8 8 8-8zM8 22v4h32v-4H8z"/></svg><svg viewBox="0 0 48 48" id="ic_vertical_align_top_48px"><path d="M16 22h6v20h4V22h6l-8-8-8 8zM8 6v4h32V6H8z"/></svg><svg viewBox="0 0 48 48" id="ic_wrap_text_48px"><path d="M8 38h12v-4H8v4zm32-28H8v4h32v-4zm-6 12H8v4h26.5c2.21 0 4 1.79 4 4s-1.79 4-4 4H30v-4l-6 6 6 6v-4h4c4.41 0 8-3.59 8-8s-3.59-8-8-8z"/></svg></svg>