<?xml version="1.0" encoding="utf-8"?><svg viewBox="0 0 48 48" xmlns="http://www.w3.org/2000/svg" xmlns:xlink="http://www.w3.org/1999/xlink"><style>:root>svg{display:none}:root>svg:target{display:block}</style><svg viewBox="0 0 48 48" id="adb"><path d="M10 32c0 7.73 6.27 14 14 14s14-6.27 14-14v-8H10v8zM32.25 8.74l4.2-4.2-1.65-1.65-4.61 4.61C28.31 6.57 26.23 6 24 6c-2.23 0-4.31.57-6.19 1.5L13.2 2.89l-1.65 1.65 4.2 4.2C12.28 11.28 10 15.36 10 20v2h28v-2c0-4.64-2.28-8.72-5.75-11.26zM18 18c-1.11 0-2-.9-2-2s.89-2 2-2c1.11 0 2 .9 2 2s-.89 2-2 2zm12 0c-1.11 0-2-.9-2-2s.89-2 2-2c1.11 0 2 .9 2 2s-.89 2-2 2z"/></svg><svg viewBox="0 0 48 48" id="airline_seat_flat"><path d="M44 22v4H18V14h18c4.42 0 8 3.58 8 8zM4 28v4h12v4h16v-4h12v-4H4zm10.29-3.8c2.32-2.37 2.28-6.17-.09-8.48-2.37-2.32-6.17-2.28-8.48.09-2.32 2.37-2.28 6.17.09 8.48 2.36 2.32 6.16 2.28 8.48-.09z"/></svg><svg viewBox="0 0 48 48" id="airline_seat_flat_angled"><path d="M44.51 28.57l-1.38 3.77-24.73-8.92 4.15-11.31 17.12 6.18c4.2 1.51 6.37 6.12 4.84 10.28zM3 24.27l13 4.69V38h16v-3.26L41.05 38l1.38-3.77L4.38 20.5 3 24.27zm11.59-3.86c2.99-1.43 4.25-5.01 2.82-8-1.43-2.99-5.01-4.25-8-2.82-2.99 1.43-4.25 5.01-2.82 8 1.43 2.99 5.01 4.25 8 2.82z"/></svg><svg viewBox="0 0 48 48" id="airline_seat_individual_suite"><path d="M14 26c3.31 0 6-2.69 6-6s-2.69-6-6-6-6 2.69-6 6 2.69 6 6 6zm24-12H22v14H6V14H2v20h44V22c0-4.42-3.58-8-8-8z"/></svg><svg viewBox="0 0 48 48" id="airline_seat_legroom_extra"><path d="M8 24V6H4v18c0 5.52 4.48 10 10 10h12v-4H14c-3.31 0-6-2.69-6-6zm37.66 10.47c-.75-1.44-2.58-1.94-4.06-1.26l-2.19 1-6.83-13.95c-.67-1.37-2.06-2.24-3.58-2.24L22 18V6H10v16c0 3.31 2.69 6 6 6h14l6.82 14 7.43-3.41c1.55-.71 2.21-2.58 1.41-4.12z"/></svg><svg viewBox="0 0 48 48" id="airline_seat_legroom_normal"><path d="M10 24V6H6v18c0 5.52 4.48 10 10 10h12v-4H16c-3.31 0-6-2.69-6-6zm31 12h-3V22c0-2.21-1.79-4-4-4H24V6H12v16c0 3.3 2.7 6 6 6h14v14h9c1.66 0 3-1.34 3-3s-1.34-3-3-3z"/></svg><svg viewBox="0 0 48 48" id="airline_seat_legroom_reduced"><path d="M39.94 38.41C40.31 40.32 38.85 42 37 42h-9v-6l2-8H18c-3.3 0-6-2.7-6-6V6h12v12h10c2.21 0 4 1.79 4 4l-4 14h2.89c1.45 0 2.78.98 3.05 2.41zM10 24V6H6v18c0 5.52 4.48 10 10 10h8v-4h-8c-3.31 0-6-2.69-6-6z"/></svg><svg viewBox="0 0 48 48" id="airline_seat_recline_extra"><path d="M10.71 11.28c-1.81-1.27-2.25-3.76-.99-5.57 1.27-1.81 3.76-2.25 5.57-.98 1.81 1.27 2.25 3.76.98 5.57-1.26 1.8-3.75 2.24-5.56.98zM32 38H17.86c-2.96 0-5.48-2.16-5.93-5.08L8 14H4l3.99 19.51c.74 4.88 4.94 8.49 9.88 8.49H32v-4zm.46-8H22.7l-2.05-8.2c3.15 1.78 6.56 3.09 10.3 2.44v-4.25c-3.26.61-6.88-.55-9.38-2.49l-3.29-2.56c-.45-.35-.98-.6-1.53-.76-.63-.18-1.31-.23-1.98-.12l-.05.01c-2.45.43-4.09 2.76-3.66 5.21l2.71 11.84c.54 2.83 3.01 4.88 5.89 4.88h13.7L41 42l3-3-11.54-9z"/></svg><svg viewBox="0 0 48 48" id="airline_seat_recline_normal"><path d="M15.17 10.83c-1.56-1.56-1.56-4.09 0-5.66 1.56-1.56 4.09-1.56 5.66 0 1.56 1.56 1.56 4.09 0 5.66-1.56 1.56-4.1 1.56-5.66 0zM12 32V14H8v18c0 5.52 4.48 10 10 10h12v-4H18c-3.31 0-6-2.69-6-6zm28 8.13L29.87 30H23v-7.36c2.79 2.3 7.21 4.31 11 4.32v-4.32c-3.32.04-7.22-1.74-9.34-4.08l-2.8-3.1c-.39-.43-.86-.76-1.37-1.01-.59-.29-1.25-.46-1.93-.46h-.05C16.02 14 14 16.01 14 18.5V30c0 3.31 2.69 6 6 6h10.13l7 7L40 40.13z"/></svg><svg viewBox="0 0 48 48" id="bluetooth_audio"><path d="M28.48 24.02l4.64 4.64c.56-1.45.88-3.02.88-4.66 0-1.63-.31-3.19-.86-4.63l-4.66 4.65zm10.58-10.59l-2.53 2.53c1.25 2.41 1.97 5.14 1.97 8.05s-.72 5.63-1.97 8.05l2.4 2.4c1.93-3.1 3.07-6.73 3.07-10.63 0-3.82-1.09-7.37-2.94-10.4zm-7.65 1.98L20 4h-2v15.17L8.83 10 6 12.83 17.17 24 6 35.17 8.83 38 18 28.83V44h2l11.41-11.41L22.83 24l8.58-8.59zM22 11.66l3.76 3.76L22 19.17v-7.51zm3.76 20.93L22 36.34v-7.52l3.76 3.77z"/></svg><svg viewBox="0 0 48 48" id="confirmation_number"><defs><path id="aka" d="M0 0h48v48H0z"/></defs><clipPath id="akb"><use xlink:href="#aka" overflow="visible"/></clipPath><path d="M44 20v-8c0-2.21-1.79-4-4-4H8c-2.21 0-3.98 1.79-3.98 4v8c2.2.01 3.98 1.8 3.98 4 0 2.21-1.79 4-3.99 4L4 36c0 2.21 1.79 4 4 4h32c2.21 0 4-1.79 4-4v-8c-2.21 0-4-1.79-4-4s1.79-4 4-4zM26 35h-4v-4h4v4zm0-9h-4v-4h4v4zm0-9h-4v-4h4v4z" clip-path="url(#akb)"/></svg><svg viewBox="0 0 48 48" id="disc_full"><path d="M40 32h4v-4h-4v4zm0-18v10h4V14h-4zM20 8C11.16 8 4 15.16 4 24s7.16 16 16 16 16-7.16 16-16S28.84 8 20 8zm0 20c-2.21 0-4-1.79-4-4s1.79-4 4-4 4 1.79 4 4-1.79 4-4 4z"/></svg><svg viewBox="0 0 48 48" id="do_not_disturb"><path d="M24 4C12.95 4 4 12.95 4 24s8.95 20 20 20 20-8.95 20-20S35.05 4 24 4zm0 36c-8.84 0-16-7.16-16-16 0-3.7 1.27-7.09 3.37-9.8L33.8 36.63C31.09 38.73 27.7 40 24 40zm12.63-6.2L14.2 11.37C16.91 9.27 20.3 8 24 8c8.84 0 16 7.16 16 16 0 3.7-1.27 7.09-3.37 9.8z"/></svg><svg viewBox="0 0 48 48" id="do_not_disturb_alt"><path d="M24 4C13 4 4 13 4 24s9 20 20 20 20-9 20-20S35 4 24 4zM8 24c0-8.8 7.2-16 16-16 3.7 0 7.1 1.3 9.8 3.4L11.4 33.8C9.3 31.1 8 27.7 8 24zm16 16c-3.7 0-7.1-1.3-9.8-3.4l22.4-22.4c2.1 2.7 3.4 6.1 3.4 9.8 0 8.8-7.2 16-16 16z"/></svg><svg viewBox="0 0 48 48" id="drive_eta"><path d="M37.84 10.02C37.43 8.84 36.31 8 35 8H13c-1.31 0-2.43.84-2.84 2.02L6 22v16c0 1.1.9 2 2 2h2c1.11 0 2-.9 2-2v-2h24v2c0 1.1.9 2 2 2h2c1.11 0 2-.9 2-2V22l-4.16-11.98zM13 30c-1.66 0-3-1.34-3-3s1.34-3 3-3 3 1.34 3 3-1.34 3-3 3zm22 0c-1.66 0-3-1.34-3-3s1.34-3 3-3 3 1.34 3 3-1.34 3-3 3zM10 20l3-9h22l3 9H10z"/></svg><svg viewBox="0 0 48 48" id="event_available"><path d="M33.06 22.12L30.94 20l-9.76 9.76-4.24-4.24-2.12 2.12L21.18 34l11.88-11.88zM38 6h-2V2h-4v4H16V2h-4v4h-2c-2.21 0-3.98 1.79-3.98 4L6 38c0 2.21 1.79 4 4 4h28c2.21 0 4-1.79 4-4V10c0-2.21-1.79-4-4-4zm0 32H10V16h28v22z"/></svg><svg viewBox="0 0 48 48" id="event_busy"><path d="M18.62 34l4.88-4.88L28.38 34l2.12-2.12L25.62 27l4.88-4.88L28.38 20l-4.88 4.88L18.62 20l-2.12 2.12L21.38 27l-4.88 4.88L18.62 34zM38 6h-2V2h-4v4H16V2h-4v4h-2c-2.21 0-3.98 1.79-3.98 4L6 38c0 2.21 1.79 4 4 4h28c2.21 0 4-1.79 4-4V10c0-2.21-1.79-4-4-4zm0 32H10V16h28v22z"/></svg><svg viewBox="0 0 48 48" id="event_note"><path d="M34 20H14v4h20v-4zm4-14h-2V2h-4v4H16V2h-4v4h-2c-2.21 0-3.98 1.79-3.98 4L6 38c0 2.21 1.79 4 4 4h28c2.21 0 4-1.79 4-4V10c0-2.21-1.79-4-4-4zm0 32H10V16h28v22zM28 28H14v4h14v-4z"/></svg><svg viewBox="0 0 48 48" id="folder_special"><path d="M40 12H24l-4-4H8c-2.21 0-4 1.79-4 4v24c0 2.21 1.79 4 4 4h32c2.21 0 4-1.79 4-4V16c0-2.21-1.79-4-4-4zM27.16 36L20 31.81 12.84 36l1.89-8.14-6.32-5.47 8.33-.72L20 14l3.25 7.67 8.33.72-6.32 5.47 1.9 8.14z"/></svg><svg viewBox="0 0 48 48" id="live_tv"><path d="M42 12H26.83l6.59-6.59L32 4l-8 8-8-8-1.41 1.41L21.17 12H6c-2.21 0-4 1.79-4 4v24c0 2.21 1.79 4 4 4h36c2.21 0 4-1.79 4-4V16c0-2.21-1.79-4-4-4zm0 28H6V16h36v24zM18 20v16l14-8z"/></svg><svg viewBox="0 0 48 48" id="mms"><path d="M40 4H8C5.79 4 4.02 5.79 4.02 8L4 44l8-8h28c2.21 0 4-1.79 4-4V8c0-2.21-1.79-4-4-4zM10 28l7-9 5 6.01L29 16l9 12H10z"/></svg><svg viewBox="0 0 48 48" id="more"><path d="M44 6H14c-1.38 0-2.47.7-3.19 1.76L0 23.99l10.81 16.23c.72 1.06 1.94 1.78 3.32 1.78H44c2.21 0 4-1.79 4-4V10c0-2.21-1.79-4-4-4zM18 27c-1.66 0-3-1.34-3-3s1.34-3 3-3 3 1.34 3 3-1.34 3-3 3zm10 0c-1.66 0-3-1.34-3-3s1.34-3 3-3 3 1.34 3 3-1.34 3-3 3zm10 0c-1.66 0-3-1.34-3-3s1.34-3 3-3 3 1.34 3 3-1.34 3-3 3z"/></svg><svg viewBox="0 0 48 48" id="network_locked"><path d="M39 20c.34 0 .67.06 1 .1V2L2 40h26v-6c0-1.77.77-3.37 2-4.47V29c0-4.96 4.04-9 9-9zm5 12v-3c0-2.76-2.24-5-5-5s-5 2.24-5 5v3c-1.1 0-2 .9-2 2v8c0 1.1.9 2 2 2h10c1.1 0 2-.9 2-2v-8c0-1.1-.9-2-2-2zm-2 0h-6v-3c0-1.66 1.34-3 3-3s3 1.34 3 3v3z"/></svg><svg viewBox="0 0 48 48" id="ondemand_video"><path d="M42 6H6c-2.21 0-4 1.79-4 4v24c0 2.21 1.79 4 4 4h10v4h16v-4h10c2.21 0 3.98-1.79 3.98-4L46 10c0-2.21-1.79-4-4-4zm0 28H6V10h36v24zM32 22l-14 8V14z"/></svg><svg viewBox="0 0 48 48" id="personal_video"><path d="M42 6H6c-2.21 0-4 1.79-4 4v24c0 2.21 1.79 4 4 4h10v4h16v-4h10c2.21 0 3.98-1.79 3.98-4L46 10c0-2.21-1.79-4-4-4zm0 28H6V10h36v24z"/></svg><svg viewBox="0 0 48 48" id="phone_bluetooth_speaker"><path d="M29.41 19L34 14.41V22h1l5.71-5.71-4.3-4.29 4.29-4.29L35 2h-1v7.59L29.41 5 28 6.41 33.59 12 28 17.59 29.41 19zM36 5.83l1.88 1.88L36 9.59V5.83zm0 8.58l1.88 1.88L36 18.17v-3.76zM40 31c-2.49 0-4.89-.4-7.14-1.14-.69-.22-1.48-.06-2.03.49l-4.4 4.41c-5.67-2.88-10.29-7.51-13.18-13.17l4.4-4.41c.55-.55.71-1.34.49-2.03C17.4 12.9 17 10.49 17 8c0-1.11-.89-2-2-2H8c-1.11 0-2 .89-2 2 0 18.78 15.22 34 34 34 1.11 0 2-.89 2-2v-7c0-1.11-.89-2-2-2z"/></svg><svg viewBox="0 0 48 48" id="phone_forwarded"><path d="M36 22l10-10L36 2v6h-8v8h8v6zm4 9c-2.49 0-4.89-.4-7.14-1.14-.69-.22-1.48-.06-2.03.49l-4.4 4.41c-5.67-2.88-10.29-7.51-13.18-13.17l4.4-4.41c.55-.55.71-1.34.49-2.03C17.4 12.89 17 10.49 17 8c0-1.11-.89-2-2-2H8c-1.11 0-2 .89-2 2 0 18.78 15.22 34 34 34 1.11 0 2-.89 2-2v-7c0-1.11-.89-2-2-2z"/></svg><svg viewBox="0 0 48 48" id="phone_in_talk"><path d="M40 31c-2.49 0-4.89-.4-7.14-1.14-.69-.22-1.48-.06-2.03.49l-4.4 4.41c-5.67-2.88-10.29-7.51-13.18-13.17l4.4-4.41c.55-.55.71-1.34.49-2.03C17.4 12.9 17 10.49 17 8c0-1.11-.89-2-2-2H8c-1.11 0-2 .89-2 2 0 18.78 15.22 34 34 34 1.11 0 2-.89 2-2v-7c0-1.11-.89-2-2-2zm-2-7h4c0-9.94-8.06-18-18-18v4c7.73 0 14 6.27 14 14zm-8 0h4c0-5.52-4.48-10-10-10v4c3.31 0 6 2.69 6 6z"/></svg><svg viewBox="0 0 48 48" id="phone_locked"><path d="M40 31c-2.49 0-4.9-.4-7.14-1.14-.69-.22-1.48-.06-2.03.49l-4.4 4.41c-5.67-2.88-10.29-7.51-13.18-13.17l4.4-4.41c.55-.55.71-1.34.49-2.03C17.4 12.9 17 10.49 17 8c0-1.11-.89-2-2-2H8c-1.1 0-2 .89-2 2 0 18.78 15.22 34 34 34 1.11 0 2-.89 2-2v-7c0-1.11-.89-2-2-2zm0-23V7c0-2.76-2.24-5-5-5s-5 2.24-5 5v1c-1.11 0-2 .9-2 2v8c0 1.1.89 2 2 2h10c1.11 0 2-.9 2-2v-8c0-1.1-.89-2-2-2zm-1.6 0h-6.8V7c0-1.88 1.52-3.4 3.4-3.4s3.4 1.52 3.4 3.4v1z"/></svg><svg viewBox="0 0 48 48" id="phone_missed"><path d="M13 11l11 11L38 8l-2-2-12 12-9-9h7V6H10v12h3v-7zm34.41 22.34C41.32 27.55 33.07 24 24 24S6.68 27.55.59 33.34c-.37.37-.59.87-.59 1.42s.22 1.05.59 1.41l4.95 4.96c.36.36.86.59 1.42.59.54 0 1.04-.22 1.4-.57 1.58-1.47 3.38-2.72 5.33-3.71.66-.33 1.12-1.01 1.12-1.8v-6.21C17.7 28.5 20.79 28 24 28s6.3.5 9.2 1.44v6.21c0 .79.46 1.47 1.12 1.8 1.95.98 3.75 2.23 5.33 3.71.36.35.85.57 1.4.57.55 0 1.05-.22 1.42-.59l4.95-4.96c.36-.36.59-.86.59-1.41s-.23-1.06-.6-1.43z"/></svg><svg viewBox="0 0 48 48" id="phone_paused"><path d="M34 6h-4v14h4V6zm6 25c-2.49 0-4.89-.4-7.14-1.14-.69-.22-1.48-.06-2.03.49l-4.4 4.41c-5.67-2.88-10.29-7.51-13.18-13.17l4.4-4.41c.55-.55.71-1.34.49-2.03C17.4 12.9 17 10.49 17 8c0-1.11-.89-2-2-2H8c-1.11 0-2 .89-2 2 0 18.78 15.22 34 34 34 1.11 0 2-.89 2-2v-7c0-1.11-.89-2-2-2zM38 6v14h4V6h-4z"/></svg><svg viewBox="0 0 48 48" id="power"><path d="M32.02 14H32V6h-4v8h-8V6h-4v8h-.02C14 13.99 12 15.99 12 17.99v10.99L19 36v6h10v-6l7-7.03V17.98c0-1.99-2-3.99-3.98-3.98z"/></svg><svg viewBox="0 0 48 48" id="sd_card"><path d="M36 4H20L8.04 16 8 40c0 2.2 1.8 4 4 4h24c2.2 0 4-1.8 4-4V8c0-2.2-1.8-4-4-4zM24 16h-4V8h4v8zm6 0h-4V8h4v8zm6 0h-4V8h4v8z"/></svg><svg viewBox="0 0 48 48" id="sim_card_alert"><path d="M36 4H20L8.05 16 8 40c0 2.2 1.8 4 4 4h24c2.2 0 4-1.8 4-4V8c0-2.2-1.8-4-4-4zM26 34h-4v-4h4v4zm0-8h-4V16h4v10z"/></svg><svg viewBox="0 0 48 48" id="sms"><path d="M40 4H8C5.79 4 4.02 5.79 4.02 8L4 44l8-8h28c2.21 0 4-1.79 4-4V8c0-2.21-1.79-4-4-4zM18 22h-4v-4h4v4zm8 0h-4v-4h4v4zm8 0h-4v-4h4v4z"/></svg><svg viewBox="0 0 48 48" id="sms_failed"><path d="M40 4H8C5.79 4 4.02 5.79 4.02 8L4 44l8-8h28c2.21 0 4-1.79 4-4V8c0-2.21-1.79-4-4-4zM26 28h-4v-4h4v4zm0-8h-4v-8h4v8z"/></svg><svg viewBox="0 0 48 48" id="sync"><path d="M24 8V2l-8 8 8 8v-6c6.63 0 12 5.37 12 12 0 2.03-.51 3.93-1.39 5.61l2.92 2.92C39.08 30.05 40 27.14 40 24c0-8.84-7.16-16-16-16zm0 28c-6.63 0-12-5.37-12-12 0-2.03.51-3.93 1.39-5.61l-2.92-2.92C8.92 17.95 8 20.86 8 24c0 8.84 7.16 16 16 16v6l8-8-8-8v6z"/></svg><svg viewBox="0 0 48 48" id="sync_disabled"><path d="M20 12.7V8.52c-1.6.41-3.09 1.07-4.46 1.92l2.93 2.93c.49-.25 1-.49 1.53-.67zM5.73 10.82l4.71 4.71C8.9 17.99 8 20.88 8 24c0 4.42 1.81 8.4 4.71 11.29L8 40h12V28l-4.47 4.47C13.35 30.3 12 27.31 12 24c0-2 .5-3.88 1.37-5.54l16.17 16.17c-.49.26-1 .49-1.53.68v4.17c1.6-.41 3.09-1.07 4.46-1.92l4.72 4.72 2.55-2.55L8.27 8.27l-2.54 2.55zM40 8H28v12l4.47-4.47C34.65 17.7 36 20.69 36 24c0 2-.5 3.88-1.37 5.54l2.93 2.93C39.1 30.01 40 27.12 40 24c0-4.42-1.81-8.4-4.71-11.29L40 8z"/></svg><svg viewBox="0 0 48 48" id="sync_problem"><path d="M6 24c0 4.42 1.82 8.4 4.71 11.29L6 40h12V28l-4.47 4.47C11.35 30.3 10 27.31 10 24c0-5.22 3.34-9.65 8-11.3V8.52C11.1 10.3 6 16.55 6 24zm16 10h4v-4h-4v4zM42 8H30v12l4.47-4.47C36.65 17.7 38 20.69 38 24c0 5.22-3.34 9.65-8 11.3v4.17C36.9 37.7 42 31.45 42 24c0-4.42-1.82-8.4-4.71-11.29L42 8zM22 26h4V14h-4v12z"/></svg><svg viewBox="0 0 48 48" id="system_update"><path d="M34 2.02L14 2c-2.21 0-4 1.79-4 4v36c0 2.21 1.79 4 4 4h20c2.21 0 4-1.79 4-4V6c0-2.21-1.79-3.98-4-3.98zM34 38H14V10h20v28zm-2-12h-6V16h-4v10h-6l8 8 8-8z"/></svg><svg viewBox="0 0 48 48" id="tap_and_play"><path d="M4 32v4c5.52 0 10 4.48 10 10h4c0-7.73-6.27-14-14-14zm0 8v6h6c0-3.31-2.69-6-6-6zm0-16v4c9.94 0 18 8.06 18 18h4c0-12.15-9.85-22-22-22zM34 2.02L14 2c-2.21 0-4 1.79-4 4v14.74c1.38.33 2.72.74 4 1.28V10h20v26h-6.06c1.04 2.49 1.68 5.19 1.9 8H34c2.21 0 4-1.79 4-4V6c0-2.21-1.79-3.98-4-3.98z"/></svg><svg viewBox="0 0 48 48" id="time_to_leave"><path d="M37.84 10.02C37.43 8.84 36.31 8 35 8H13c-1.31 0-2.43.84-2.84 2.02L6 22v16c0 1.1.9 2 2 2h2c1.11 0 2-.9 2-2v-2h24v2c0 1.1.9 2 2 2h2c1.11 0 2-.9 2-2V22l-4.16-11.98zM13 30c-1.66 0-3-1.34-3-3s1.34-3 3-3 3 1.34 3 3-1.34 3-3 3zm22 0c-1.66 0-3-1.34-3-3s1.34-3 3-3 3 1.34 3 3-1.34 3-3 3zM10 20l3-9h22l3 9H10z"/></svg><svg viewBox="0 0 48 48" id="vibration"><path d="M0 30h4V18H0v12zm6 4h4V14H6v20zm38-16v12h4V18h-4zm-6 16h4V14h-4v20zM33 6H15c-1.66 0-3 1.34-3 3v30c0 1.66 1.34 3 3 3h18c1.66 0 3-1.34 3-3V9c0-1.66-1.34-3-3-3zm-1 32H16V10h16v28z"/></svg><svg viewBox="0 0 48 48" id="voice_chat"><path d="M40 4H8C5.79 4 4.02 5.79 4.02 8L4 44l8-8h28c2.21 0 4-1.79 4-4V8c0-2.21-1.79-4-4-4zm-4 24l-8-6.4V28H12V12h16v6.4l8-6.4v16z"/></svg><svg viewBox="0 0 48 48" id="vpn_lock"><path d="M44 8V7c0-2.76-2.24-5-5-5s-5 2.24-5 5v1c-1.11 0-2 .9-2 2v8c0 1.1.89 2 2 2h10c1.11 0 2-.9 2-2v-8c0-1.1-.89-2-2-2zm-1.6 0h-6.8V7c0-1.88 1.52-3.4 3.4-3.4s3.4 1.52 3.4 3.4v1zm-4.55 16c.08.66.15 1.32.15 2 0 4.16-1.6 7.94-4.21 10.79C33.28 35.17 31.78 34 30 34h-2v-6c0-1.1-.9-2-2-2H14v-4h4c1.1 0 2-.9 2-2v-4h4c2.21 0 4-1.79 4-4V6.92c-1.89-.6-3.91-.92-6-.92C10.95 6 2 14.95 2 26s8.95 20 20 20 20-8.95 20-20c0-.68-.04-1.34-.1-2h-4.05zM20 41.86C12.11 40.88 6 34.16 6 26c0-1.23.15-2.43.42-3.58L16 32v2c0 2.21 1.79 4 4 4v3.86z"/></svg><svg viewBox="0 0 48 48" id="wc"><path d="M11 44V29H8V18c0-2.2 1.8-4 4-4h6c2.2 0 4 1.8 4 4v11h-3v15h-8zm25 0V32h6l-5.09-15.26C36.37 15.1 34.84 14 33.12 14h-.23c-1.72 0-3.25 1.1-3.79 2.74L24 32h6v12h6zM15 12c2.21 0 4-1.79 4-4s-1.79-4-4-4-4 1.79-4 4 1.79 4 4 4zm18 0c2.21 0 4-1.79 4-4s-1.79-4-4-4-4 1.79-4 4 1.79 4 4 4z"/></svg><svg viewBox="0 0 48 48" id="wifi"><path d="M2 18l4 4c9.94-9.94 26.06-9.94 36 0l4-4C33.85 5.85 14.15 5.85 2 18zm16 16l6 6 6-6c-3.31-3.31-8.69-3.31-12 0zm-8-8l4 4c5.52-5.52 14.48-5.52 20 0l4-4c-7.73-7.73-20.27-7.73-28 0z"/></svg></svg>
